<?xml version="1.0" encoding="UTF-8" standalone="no"?>
<!-- Created with Inkscape (http://www.inkscape.org/) -->

<svg
   width="98.89917"
   height="101.3974"
   viewBox="0 0 98.89917 101.3974"
   version="1.1"
   id="svg1"
   xml:space="preserve"
   sodipodi:docname="logo-black.svg"
   inkscape:export-filename="..\..\..\..\..\Downloads\icon.png"
   inkscape:export-xdpi="89.719627"
   inkscape:export-ydpi="89.719627"
   inkscape:version="1.3.2 (091e20e, 2023-11-25, custom)"
   xmlns:inkscape="http://www.inkscape.org/namespaces/inkscape"
   xmlns:sodipodi="http://sodipodi.sourceforge.net/DTD/sodipodi-0.dtd"
   xmlns="http://www.w3.org/2000/svg"
   xmlns:svg="http://www.w3.org/2000/svg"><sodipodi:namedview
     id="namedview1"
     pagecolor="#ffffff"
     bordercolor="#000000"
     borderopacity="0.25"
     inkscape:showpageshadow="2"
     inkscape:pageopacity="0.0"
     inkscape:pagecheckerboard="0"
     inkscape:deskcolor="#d1d1d1"
     inkscape:document-units="px"
     inkscape:zoom="0.18240371"
     inkscape:cx="709.96363"
     inkscape:cy="139.79979"
     inkscape:window-width="1920"
     inkscape:window-height="1051"
     inkscape:window-x="-9"
     inkscape:window-y="-9"
     inkscape:window-maximized="1"
     inkscape:current-layer="layer2" /><defs
     id="defs1" /><g
     inkscape:groupmode="layer"
     id="layer2"
     inkscape:label="Logo"
     style="display:inline"
     transform="translate(-1766.458,-1006.7493)"><path
       id="path98"
       style="fill:#6f7bff;fill-opacity:1;stroke-width:101.304;stroke-linecap:round;stroke-miterlimit:5.3;paint-order:fill markers stroke"
       d="m 1337.8533,10.601527 c -8.0072,-0.147742 -16.0285,-0.147742 -24.066,0.147741 C 1185.2097,14.403625 1062.2766,63.088807 967.48497,147.89957 788.01556,309.09384 742.98317,568.25153 857.97192,778.12466 l -35.70308,225.86654 c -11.42498,46.8954 33.91569,88.0493 81.05024,73.5639 l 265.36882,-48.0606 c 235.9788,72.7587 492.3332,-21.7329 619.9986,-228.52677 136.5902,-222.49501 85.062,-509.0566 -121.003,-672.93964 C 1574.2259,53.692829 1457.967,12.468284 1337.8533,10.607878 Z m -8.4703,125.713463 c 224.4403,0.008 406.3862,177.46837 406.3938,396.38081 0.017,218.92191 -181.9417,396.40195 -406.3938,396.41039 -53.6411,-0.25328 -106.7012,-10.84799 -156.1217,-31.19336 L 972.05832,926.24536 993.95514,755.44617 C 947.9187,689.82204 923.18182,612.21022 922.95893,532.6958 c 0,-218.92405 181.97097,-396.38821 406.42407,-396.38081 z M 1052.3457,572.0937 c 12.7709,137.68847 130.8972,243.26663 272.6394,243.67924 141.7315,-0.42211 259.8414,-106.00133 272.6111,-243.67924 h -113.0315 c -12.3738,75.3314 -79.9975,130.90636 -159.5796,131.1459 -79.5929,-0.22161 -147.234,-55.80394 -159.6088,-131.1459 -37.6766,0 -75.354,0 -113.0306,0 z"
       sodipodi:nodetypes="cccccccccccsscccccsccccccc"
       inkscape:export-filename="sayhi.svg"
       inkscape:export-xdpi="96"
       inkscape:export-ydpi="96" /></g></svg>
