<?xml version="1.0" encoding="UTF-8" standalone="no"?>
<!-- Created with Inkscape (http://www.inkscape.org/) -->

<svg
   width="98.89917"
   height="101.3974"
   viewBox="0 0 98.89917 101.3974"
   version="1.1"
   id="svg1"
   xml:space="preserve"
   xmlns:inkscape="http://www.inkscape.org/namespaces/inkscape"
   xmlns:sodipodi="http://sodipodi.sourceforge.net/DTD/sodipodi-0.dtd"
   xmlns="http://www.w3.org/2000/svg"
   xmlns:svg="http://www.w3.org/2000/svg"><sodipodi:namedview
     id="namedview1"
     pagecolor="#ffffff"
     bordercolor="#000000"
     borderopacity="0.25"
     inkscape:showpageshadow="2"
     inkscape:pageopacity="0.0"
     inkscape:pagecheckerboard="0"
     inkscape:deskcolor="#d1d1d1"
     inkscape:document-units="px" /><defs
     id="defs1" /><g
     inkscape:groupmode="layer"
     id="layer2"
     inkscape:label="Logo"
     style="display:inline"
     transform="translate(-1766.458,-1006.7493)"><path
       id="path98"
       style="fill:#000000;fill-opacity:1;stroke-width:9.481;stroke-linecap:round;stroke-miterlimit:5.3;paint-order:fill markers stroke"
       d="m 1816.6557,1006.7585 c -0.7401,-0.014 -1.4815,-0.014 -2.2244,0.014 -11.8843,0.3463 -23.2469,4.9599 -32.0084,12.9969 -16.5882,15.2754 -20.7505,39.8342 -10.1222,59.7226 l -3.3,21.404 c -1.056,4.444 3.1348,8.3439 7.4914,6.9712 l 24.5278,-4.5544 c 21.8113,6.8949 45.5059,-2.0595 57.3059,-21.6561 12.6249,-21.0845 7.8622,-48.2402 -11.1842,-63.7704 -8.6382,-7.0443 -19.3839,-10.9509 -30.4859,-11.1272 z m -0.7829,11.9131 c 20.7448,7e-4 37.5619,16.8176 37.5626,37.5626 8e-4,20.7459 -16.8167,37.5646 -37.5626,37.5654 -4.958,-0.024 -9.8623,-1.028 -14.4302,-2.956 l -18.597,2.6849 2.0239,-16.1856 c -4.2551,-6.2188 -6.5415,-13.5736 -6.5621,-21.1087 7e-4,-20.7461 16.8194,-37.5633 37.5654,-37.5626 z m -25.6063,41.2961 c 1.1804,13.0479 12.0987,23.0529 25.1998,23.092 13.1001,-0.04 24.0169,-10.0451 25.1972,-23.092 h -10.4474 c -1.1437,7.1387 -7.3941,12.4052 -14.7498,12.4279 -7.3567,-0.021 -13.6087,-5.2882 -14.7525,-12.4279 -3.4824,0 -6.9649,0 -10.4473,0 z"
       sodipodi:nodetypes="cccccccccccsscccccsccccccc"
       inkscape:export-filename="sayhi.svg"
       inkscape:export-xdpi="96"
       inkscape:export-ydpi="96" /></g></svg>
